<svg xmlns="http://www.w3.org/2000/svg"  viewBox="0 0 512 512" width="192px" height="192px"><g data-name="3. Jester"><path fill="#8f79e7" d="M504,473.44V504H8V473.44a80,80,0,0,1,44.22-71.55L168,344H344l115.78,57.89A80,80,0,0,1,504,473.44Z"/><rect width="496" height="24" x="8" y="480" fill="#7c6dcb"/><path fill="#ead590" d="M504,473.44V504H256V344h88l115.78,57.89A80,80,0,0,1,504,473.44Z"/><rect width="248" height="24" x="256" y="480" fill="#f1cb66"/><path d="M8,512a8,8,0,0,1-8-8V473.44a87.53,87.53,0,0,1,48.65-78.71l19.77-9.89a8,8,0,1,1,7.16,14.32L55.8,409A71.62,71.62,0,0,0,16,473.44V504A8,8,0,0,1,8,512Z"/><path d="M504,512a8,8,0,0,1-8-8V473.44A71.62,71.62,0,0,0,456.2,409L342.11,352H169.89l-54.31,27.16a8,8,0,0,1-7.16-14.32l56-28A8.08,8.08,0,0,1,168,336H344a8.08,8.08,0,0,1,3.58.84l115.78,57.89A87.54,87.54,0,0,1,512,473.44V504A8,8,0,0,1,504,512Z"/><path fill="#ead590" d="M408,368a40,40,0,0,1-43.4,39.85C376.19,434,357.07,464,328,464a40,40,0,0,1-34.12-19.12,40,40,0,0,1-75.76,0A40,40,0,0,1,184,464c-29,0-48.23-29.91-36.6-56.15A40,40,0,1,1,144,328H368A40,40,0,0,1,408,368Z"/><path fill="#8f79e7" d="M408,368a40,40,0,0,1-43.4,39.85C376.19,434,357.07,464,328,464a40,40,0,0,1-34.12-19.12A40,40,0,0,1,256,472V328H368A40,40,0,0,1,408,368Z"/><path d="M216.53,459.33a48,48,0,0,1-79.77-43.88A48,48,0,0,1,144,320H368a48,48,0,0,1,7.24,95.45,48,48,0,0,1-79.77,43.88C276.4,486.87,235.6,486.87,216.53,459.33Zm9.16-17a32,32,0,0,0,60.62,0,8,8,0,0,1,14.39-1.6,32,32,0,0,0,56.59-29.61,8,8,0,0,1,8-11.21A32,32,0,1,0,368,336H144a32,32,0,1,0,2.69,63.88,8,8,0,0,1,8,11.21C145.45,432,160.76,456,184,456a31.81,31.81,0,0,0,27.3-15.3A8,8,0,0,1,225.69,442.3Z"/><path d="M256,512a8,8,0,0,1-8-8V472a8,8,0,0,1,16,0v32A8,8,0,0,1,256,512Z"/><path d="M256,480a8,8,0,0,1-8-8V328a8,8,0,0,1,16,0V472A8,8,0,0,1,256,480Z"/><path fill="#ead590" d="M256,48V200H360l24-96,64,32,16,104h24V94.41a32,32,0,0,0-21.06-30.07L312,8Z"/><path d="M488,248H464a8,8,0,0,1-7.91-6.78l-15.37-99.91-51.38-25.69-21.58,86.32A8,8,0,0,1,360,208H256a8,8,0,0,1-8-8V48a8,8,0,0,1,3.35-6.51l56-40a8,8,0,0,1,7.38-1l72,26.18a8,8,0,1,1-5.46,15L313.22,17,264,52.12V192h89.75l22.49-89.94a8,8,0,0,1,11.34-5.22l64,32a8,8,0,0,1,4.33,5.94L470.86,232H480V94.41a24.07,24.07,0,0,0-15.8-22.55L413.27,53.34a8,8,0,1,1,5.46-15l50.94,18.52A40.13,40.13,0,0,1,496,94.41V240A8,8,0,0,1,488,248Z"/><circle cx="472" cy="248" r="32" fill="#8f79e7"/><path d="M472,288a40,40,0,1,1,40-40A40,40,0,0,1,472,288Zm0-64a24,24,0,1,0,24,24A24,24,0,0,0,472,224Z"/><path fill="#8f79e7" d="M256,48V200H152l-24-96L64,136,48,240H24V94.41A32,32,0,0,1,45.06,64.34L200,8Z"/><path d="M48,248H24a8,8,0,0,1-8-8V94.41A40.13,40.13,0,0,1,42.33,56.82L197.27.48a8,8,0,0,1,7.38,1l56,40A8,8,0,0,1,264,48V200a8,8,0,0,1-8,8H152a8,8,0,0,1-7.76-6.06l-21.58-86.32L71.28,141.31,55.91,241.22A8,8,0,0,1,48,248ZM32,232h9.14l15-97.22a8,8,0,0,1,4.33-5.94l64-32a8,8,0,0,1,11.34,5.22L158.25,192H248V52.12L198.78,17l-151,54.9A24.07,24.07,0,0,0,32,94.41Z"/><rect width="256" height="40" x="128" y="200" fill="#e9a648"/><path d="M384,248H128a8,8,0,0,1-8-8V200a8,8,0,0,1,8-8H384a8,8,0,0,1,8,8v40A8,8,0,0,1,384,248ZM136,232H376V208H136Z"/><polygon fill="#e9a648" points="384 152 384 200 128 200 128 152 160 168 192 152 224 168 256 152 288 168 320 152 352 168 384 152"/><path d="M384,208H128a8,8,0,0,1-8-8V152a8,8,0,0,1,11.58-7.16L160,159.06l28.42-14.22a8,8,0,0,1,7.16,0L224,159.06l28.42-14.22a8,8,0,0,1,7.16,0L288,159.06l28.42-14.22a8,8,0,0,1,7.16,0L352,159.06l28.42-14.22A8,8,0,0,1,392,152v48A8,8,0,0,1,384,208ZM136,192H376V164.94l-20.42,10.22a8,8,0,0,1-7.16,0L320,160.94l-28.42,14.22a8,8,0,0,1-7.16,0L256,160.94l-28.42,14.22a8,8,0,0,1-7.16,0L192,160.94l-28.42,14.22a8,8,0,0,1-7.16,0L136,164.94Z"/><circle cx="40" cy="248" r="32" fill="#ead590"/><path d="M40,288a40,40,0,1,1,40-40A40,40,0,0,1,40,288Zm0-64a24,24,0,1,0,24,24A24,24,0,0,0,40,224Z"/><path fill="#e0c3aa" d="M256,416A112,112,0,0,1,144,304V240H368v64A112,112,0,0,1,256,416Z"/><path fill="#d0a37f" d="M256,392A112,112,0,0,1,144,280v24a112,112,0,0,0,224,0V280A112,112,0,0,1,256,392Z"/><path d="M256,424A120.13,120.13,0,0,1,136,304V240a8,8,0,0,1,8-8H368a8,8,0,0,1,8,8v64A120.13,120.13,0,0,1,256,424ZM152,248v56a104,104,0,0,0,208,0V248Z"/><path fill="#e0c3aa" d="M120,240h24a0,0,0,0,1,0,0v64a0,0,0,0,1,0,0H120a16,16,0,0,1-16-16V256A16,16,0,0,1,120,240Z"/><path fill="#d0a37f" d="M104,264v24a16,16,0,0,0,16,16h24V280H120A16,16,0,0,1,104,264Z"/><path d="M144,312H120a24,24,0,0,1-24-24V256a24,24,0,0,1,24-24h24a8,8,0,0,1,8,8v64A8,8,0,0,1,144,312Zm-24-64a8,8,0,0,0-8,8v32a8,8,0,0,0,8,8h16V248Z"/><path fill="#e0c3aa" d="M384,240h24a0,0,0,0,1,0,0v64a0,0,0,0,1,0,0H384a16,16,0,0,1-16-16V256A16,16,0,0,1,384,240Z" transform="rotate(180 388 272)"/><path fill="#d0a37f" d="M392,280H368v24h24a16,16,0,0,0,16-16V264A16,16,0,0,1,392,280Z"/><path d="M392,312H368a8,8,0,0,1-8-8V240a8,8,0,0,1,8-8h24a24,24,0,0,1,24,24v32A24,24,0,0,1,392,312Zm-16-16h16a8,8,0,0,0,8-8V256a8,8,0,0,0-8-8H376Z"/><path d="M204.42,363.82a8,8,0,1,1,7.16-14.31,99.78,99.78,0,0,0,88.84,0,8,8,0,1,1,7.16,14.31A115.88,115.88,0,0,1,204.42,363.82Z"/><path d="M200,372.67A8,8,0,0,1,194.34,359l16-16a8,8,0,1,1,11.32,11.32l-16,16A8,8,0,0,1,200,372.67Z"/><path d="M312,372.67a8,8,0,0,1-5.66-2.34l-16-16A8,8,0,1,1,301.66,343l16,16A8,8,0,0,1,312,372.67Z"/><path d="M208,312a8,8,0,0,1-8-8V272a8,8,0,0,1,16,0v32A8,8,0,0,1,208,312Z"/><path d="M224,296H192a8,8,0,0,1,0-16h32a8,8,0,0,1,0,16Z"/><path d="M304,312a8,8,0,0,1-8-8V272a8,8,0,0,1,16,0v32A8,8,0,0,1,304,312Z"/><path d="M320,296H288a8,8,0,0,1,0-16h32a8,8,0,0,1,0,16Z"/></g></svg>